<svg width="25" height="20" viewBox="0 0 25 20" fill="none" xmlns="http://www.w3.org/2000/svg">
<path d="M22.74 9.26527C22.74 9.26527 22.5105 9.54347 22.0564 9.99268C21.6022 10.4419 13.2525 18.7009 13.2525 18.7009C13.1059 18.8459 12.9142 18.9182 12.7222 18.9182C12.5302 18.9182 12.3386 18.8459 12.192 18.7009C12.192 18.7009 3.84223 10.4415 3.3881 9.99231C2.93398 9.5431 2.70448 9.2649 2.70448 9.2649C1.9391 8.36314 1.47223 7.20544 1.47223 5.93534C1.47223 3.06724 3.82273 0.742188 6.72223 0.742188C8.17198 0.742188 9.48448 1.32308 10.4344 2.26341L10.4377 2.26007L12.192 3.99496C12.4849 4.28466 12.9596 4.28466 13.2525 3.99496L15.0067 2.26007L15.0101 2.26341C15.96 1.32308 17.2725 0.742188 18.7222 0.742188C21.6217 0.742188 23.9722 3.06724 23.9722 5.93534C23.9722 7.20544 23.5054 8.36314 22.74 9.26527Z" fill="#F76D57"/>
<path d="M22.74 9.26527C22.74 9.26527 22.5105 9.54347 22.0564 9.99268C21.6022 10.4419 13.2525 18.7009 13.2525 18.7009C13.1059 18.8459 12.9142 18.9182 12.7222 18.9182C12.5302 18.9182 12.3386 18.8459 12.192 18.7009C12.192 18.7009 3.84223 10.4415 3.3881 9.99231C2.93398 9.5431 2.70448 9.2649 2.70448 9.2649C1.9391 8.36314 1.47223 7.20544 1.47223 5.93534C1.47223 3.06724 3.82273 0.742188 6.72223 0.742188C8.17198 0.742188 9.48448 1.32308 10.4344 2.26341L10.4377 2.26007L12.192 3.99496C12.4849 4.28466 12.9596 4.28466 13.2525 3.99496L15.0067 2.26007L15.0101 2.26341C15.96 1.32308 17.2725 0.742188 18.7222 0.742188C21.6217 0.742188 23.9722 3.06724 23.9722 5.93534C23.9722 7.20544 23.5054 8.36314 22.74 9.26527Z" fill="#F76D57"/>
<path d="M18.7222 0C17.0655 0 15.5655 0.664353 14.4799 1.73859L12.9877 3.20789C12.8411 3.35292 12.6041 3.35292 12.4575 3.20789C12.4575 3.20789 10.9684 1.73526 10.9654 1.73859C9.87898 0.664353 8.37898 0 6.72223 0C3.40835 0 0.722229 2.65704 0.722229 5.93503C0.722229 7.17323 1.10623 8.3224 1.7621 9.27349C1.7621 9.27349 2.03735 9.70526 2.36285 10.0269C2.68835 10.3485 11.6617 19.2251 11.6617 19.2251C11.9546 19.5148 12.3386 19.6598 12.7222 19.6598C13.1059 19.6598 13.4899 19.5148 13.7827 19.2251C13.7827 19.2251 22.7565 10.3485 23.0816 10.0269C23.4067 9.70526 23.6824 9.27349 23.6824 9.27349C24.3382 8.3224 24.7222 7.17323 24.7222 5.93503C24.7222 2.65704 22.0361 0 18.7222 0ZM22.74 9.26496C22.74 9.26496 22.5105 9.54316 22.0564 9.99237C21.6022 10.4416 13.2525 18.7006 13.2525 18.7006C13.1059 18.8456 12.9142 18.9179 12.7222 18.9179C12.5302 18.9179 12.3386 18.8456 12.192 18.7006C12.192 18.7006 3.84223 10.4412 3.3881 9.992C2.93398 9.54279 2.70448 9.26459 2.70448 9.26459C1.9391 8.36283 1.47223 7.20513 1.47223 5.93503C1.47223 3.06693 3.82273 0.741879 6.72223 0.741879C8.17198 0.741879 9.48448 1.32277 10.4344 2.2631L10.4377 2.25976L12.192 3.99465C12.4849 4.28435 12.9596 4.28435 13.2525 3.99465L15.0067 2.25976L15.0101 2.2631C15.96 1.32277 17.2725 0.741879 18.7222 0.741879C21.6217 0.741879 23.9722 3.06693 23.9722 5.93503C23.9722 7.20513 23.5054 8.36283 22.74 9.26496Z" fill="#394240"/>
<path d="M18.7222 2.22559C18.5149 2.22559 18.3472 2.39144 18.3472 2.59662C18.3472 2.8018 18.5149 2.96766 18.7222 2.96766C20.379 2.96766 21.7222 4.2967 21.7222 5.93593C21.7222 6.14111 21.8899 6.30697 22.0972 6.30697C22.3046 6.30697 22.4722 6.14111 22.4722 5.93593C22.4722 3.88708 20.793 2.22559 18.7222 2.22559Z" fill="#394240"/>
</svg>
